0
SECTION
2
ENTITIES
0
LWPOLYLINE
90
2
70
0
43
0
10
0
20
0
10
100
20
0
0
LWPOLYLINE
90
2
70
0
43
0
10
100
20
0
10
100
20
50
0
LWPOLYLINE
90
2
70
0
43
0
10
100
20
50
10
0
20
50
0
LWPOLYLINE
90
2
70
0
43
0
10
0
20
50
10
0
20
0
0
ARC
10
3
20
3
40
6
50
0
51
90
0
ARC
10
97
20
3
40
6
50
90
51
180
0
ARC
10
97
20
47
40
6
50
180
51
270
0
ARC
10
3
20
47
40
6
50
270
51
360
0
LWPOLYLINE
90
2
70
0
43
0
10
3
20
9
10
3
20
41
0
LWPOLYLINE
90
2
70
0
43
0
10
9
20
3
10
91
20
3
0
LWPOLYLINE
90
2
70
0
43
0
10
97
20
9
10
97
20
41
0
LWPOLYLINE
90
2
70
0
43
0
10
9
20
47
10
91
20
47
0
ARC
10
29.0
20
38
40
6
50
0
51
90
0
ARC
10
15
20
38
40
6
50
90
51
180
0
ARC
10
15
20
12
40
6
50
180
51
270
0
ARC
10
29.0
20
12
40
6
50
270
51
360
0
LWPOLYLINE
90
2
70
0
43
0
10
15
20
6
10
29.0
20
6
0
LWPOLYLINE
90
2
70
0
43
0
10
35.0
20
12
10
35.0
20
38
0
LWPOLYLINE
90
2
70
0
43
0
10
29.0
20
44
10
15
20
44
0
LWPOLYLINE
90
2
70
0
43
0
10
9
20
38
10
9
20
12
0
ARC
10
85.0
20
38
40
6
50
0
51
90
0
ARC
10
71.0
20
38
40
6
50
90
51
180
0
ARC
10
71.0
20
12
40
6
50
180
51
270
0
ARC
10
85.0
20
12
40
6
50
270
51
360
0
LWPOLYLINE
90
2
70
0
43
0
10
71.0
20
6
10
85.0
20
6
0
LWPOLYLINE
90
2
70
0
43
0
10
91.0
20
12
10
91.0
20
38
0
LWPOLYLINE
90
2
70
0
43
0
10
85.0
20
44
10
71.0
20
44
0
LWPOLYLINE
90
2
70
0
43
0
10
65.0
20
38
10
65.0
20
12
0
ARC
10
50.0
20
25.0
40
12
50
0
51
90
0
ARC
10
50.0
20
25.0
40
12
50
90
51
180
0
ARC
10
50.0
20
25.0
40
12
50
180
51
270
0
ARC
10
50.0
20
25.0
40
12
50
270
51
360
0
ARC
10
50.0
20
30.0
40
3.175
50
0
51
90
0
ARC
10
50.0
20
30.0
40
3.175
50
90
51
180
0
ARC
10
50.0
20
30.0
40
3.175
50
180
51
270
0
ARC
10
50.0
20
30.0
40
3.175
50
270
51
360
0
ARC
10
50.0
20
30.0
40
4.7625
50
90
51
180
0
ARC
10
50.0
20
30.0
40
4.7625
50
0
51
90
0
LWPOLYLINE
90
2
70
0
43
0
10
46.825
20
26.450242085719083
10
46.825
20
18.4125
0
LWPOLYLINE
90
2
70
0
43
0
10
53.175
20
26.450242085719083
10
53.175
20
18.4125
0
ARC
10
50.0
20
18.4125
40
3.175
50
180
51
270
0
ARC
10
50.0
20
18.4125
40
3.175
50
270
51
360
0
ARC
10
50.0
20
30.0
40
4.7625
50
180
51
228.1896851042214
0
ARC
10
50.0
20
30.0
40
4.7625
50
311.8103148957786
51
360
0
ENDSEC
0
EOF
