<?xml version="1.0" encoding="UTF-8" standalone="no"?>
<svg  version="1.1" xmlns="http://www.w3.org/2000/svg" width="377.953px" height="188.976px">
<path d="M132.283 143.622 L132.283 45.3543 L132.182 43.2095 L131.878 41.084 L131.374 38.9967 L130.608 36.8003 L129.705 34.8523 L128.524 32.8487 L127.256 31.1156 L125.705 29.3826 L124.122 27.9316 L122.261 26.5363 L120.424 25.4238 L118.326 24.4205 L116.307 23.6897 L114.052 23.1173 L111.929 22.7965 L109.606 22.6772 L56.6929 22.6772 L54.5481 22.7788 L52.4225 23.0829 L50.1636 23.6375 L48.1389 24.3524 L46.1909 25.2555 L44.1873 26.437 L42.4542 27.7046 L40.7211 29.256 L39.1561 30.9767 L37.8749 32.6998 L36.7624 34.5363 L35.7591 36.6348 L35.0283 38.6538 L34.4559 40.9083 L34.135 43.0314 L34.0157 45.3543 L34.0157 143.622 L34.1174 145.767 L34.4215 147.892 L34.9252 149.98 L35.6909 152.176 L36.5941 154.124 L37.7756 156.128 L39.0432 157.861 L40.5946 159.594 L42.1773 161.045 L44.0384 162.44 L45.8749 163.553 L47.9734 164.556 L50.1636 165.339 L52.2469 165.859 L54.37 166.18 L56.6929 166.299 L109.606 166.299 L111.751 166.198 L113.877 165.894 L116.136 165.339 L118.16 164.624 L120.108 163.721 L122.112 162.539 L123.984 161.159 L125.578 159.72 L127.143 158 L128.424 156.277 L129.537 154.44 L130.54 152.342 L131.271 150.323 L131.843 148.068 L132.164 145.945 L132.283 143.622 Z " stroke="black" stroke-width="1" fill="none" />

<circle cx="188.976" cy="94.4882" r="45.3543" stroke="black" stroke-width="1" fill="none" />


<path d="M206.976 75.5906 L206.654 72.2009 L205.647 68.8008 L204.93 67.2546 L202.986 64.2886 L201.754 62.913 L199.021 60.6538 L195.897 58.9743 L192.505 57.9399 L188.976 57.5906 L185.587 57.9126 L183.93 58.3124 L180.64 59.6371 L177.674 61.5811 L175.147 64.0688 L173.157 67.0038 L172.36 68.6694 L171.78 70.272 L171.071 73.7467 L171.069 77.4133 L171.361 79.2917 L171.85 81.1289 L172.529 82.9043 L173.392 84.5981 L174.429 86.1914 L175.628 87.6666 L176.976 89.007 L176.976 119.386 L177.191 121.646 L177.863 123.912 L178.341 124.943 L179.637 126.92 L181.368 128.666 L183.252 129.932 L184.362 130.463 L186.624 131.153 L188.976 131.386 L191.329 131.153 L193.503 130.499 L195.594 129.396 L197.428 127.905 L198.934 126.082 L200.054 124 L200.743 121.739 L200.976 119.386 L200.976 89.007 L202.324 87.6666 L203.524 86.1914 L204.56 84.5981 L205.392 82.9737 L206.08 81.2012 L206.576 79.3661 L206.876 77.4889 L206.976 75.5906 Z " stroke="black" stroke-width="1" fill="none" />

<circle cx="188.976" cy="75.5906" r="12" stroke="black" stroke-width="1" fill="none" />


<path d="M0 0 L0 188.976 L377.953 188.976 L377.953 0 " stroke="black" stroke-width="1" fill="none" />

<path d="M377.953 0 L0 0 " stroke="black" stroke-width="1" fill="none" />

<path d="M366.614 154.961 L364.469 155.062 L362.168 155.401 L359.914 155.973 L357.895 156.704 L355.954 157.623 L353.96 158.82 L352.099 160.215 L350.516 161.666 L349.077 163.26 L347.796 164.983 L346.684 166.82 L345.68 168.918 L344.897 171.109 L344.377 173.192 L344.039 175.493 L343.937 177.638 L34.0157 177.638 L33.8965 175.315 L33.5756 173.192 L33.0554 171.109 L32.3406 169.084 L31.4374 167.136 L30.2559 165.132 L28.9883 163.399 L27.4369 161.666 L25.7162 160.101 L23.9931 158.82 L22.1566 157.707 L20.0581 156.704 L18.0391 155.973 L15.7846 155.401 L13.6615 155.08 L11.3386 154.961 L11.3386 34.0157 L13.6615 33.8965 L15.7846 33.5756 L17.8679 33.0554 L20.0581 32.2724 L22.1566 31.2691 L23.9931 30.1566 L25.7162 28.8754 L27.4369 27.3103 L28.8754 25.7162 L30.2559 23.8442 L31.3539 21.9989 L32.3406 19.8926 L33.0554 17.8679 L33.5756 15.7846 L33.8965 13.6615 L34.0157 11.3386 L343.937 11.3386 L344.039 13.4834 L344.377 15.7846 L344.897 17.8679 L345.68 20.0581 L346.599 21.9989 L347.796 23.9931 L349.077 25.7162 L350.642 27.4369 L352.237 28.8754 L354.109 30.2559 L355.954 31.3539 L358.06 32.3406 L360.085 33.0554 L362.344 33.61 L364.469 33.9141 L366.614 34.0157 " stroke="black" stroke-width="1" fill="none" />

<path d="M343.937 45.3543 L343.835 43.2095 L343.531 41.084 L342.977 38.825 L342.262 36.8003 L341.359 34.8523 L340.177 32.8487 L338.797 30.9767 L337.358 29.3826 L335.775 27.9316 L333.914 26.5363 L332.078 25.4238 L329.979 24.4205 L327.96 23.6897 L325.706 23.1173 L323.583 22.7965 L321.26 22.6772 L268.346 22.6772 L266.202 22.7788 L263.9 23.1173 L261.817 23.6375 L259.627 24.4205 L257.686 25.3391 L255.692 26.5363 L253.969 27.8175 L252.248 29.3826 L250.81 30.9767 L249.528 32.6998 L248.416 34.5363 L247.413 36.6348 L246.63 38.825 L246.109 40.9083 L245.789 43.0314 L245.669 45.3543 L245.669 143.622 L245.771 145.767 L246.109 148.068 L246.63 150.151 L247.413 152.342 L248.331 154.282 L249.528 156.277 L250.81 158 L252.375 159.72 L253.969 161.159 L255.841 162.539 L257.844 163.721 L259.792 164.624 L261.989 165.39 L264.076 165.894 L266.202 166.198 L268.346 166.299 L321.26 166.299 L323.405 166.198 L325.706 165.859 L327.789 165.339 L329.979 164.556 L331.92 163.637 L333.914 162.44 L335.637 161.159 L337.358 159.594 L338.91 157.861 L340.177 156.128 L341.275 154.282 L342.194 152.342 L342.924 150.323 L343.497 148.068 L343.818 145.945 L343.937 143.622 " stroke="black" stroke-width="1" fill="none" />

<path d="M343.937 143.622 L343.937 45.3543 " stroke="black" stroke-width="1" fill="none" />

<path d="M366.614 154.961 L366.614 34.0157 " stroke="black" stroke-width="1" fill="none" />

</svg>
